<svg width="1000" height="1000" xmlns="http://www.w3.org/2000/svg" xmlns:xlink="http://www.w3.org/1999/xlink">
  <link xmlns="http://www.w3.org/1999/xhtml" rel="stylesheet" href="styles.css" type="text/css" />

  <defs>
    <path id="blade1" d="M0,0 h-50 a40,40 0 0 1 -40,-40 v-100 h50 a40,40 0 0 1 40,40 z" stroke="white"
      stroke-width="5" />
    <path id="blade2" d="M90,0 m30,-30 h-50 a40,40 0 0 1 -40,-40 v-100 h50 a40,40 0 0 1 40,40 z" stroke="white"
      stroke-width="5" />

    <mask id="blademask">
      <use xlink:href="#blade2" transform="rotate( 0)" fill="#fff" stroke="#fff"/>
      <use xlink:href="#blade2" transform="rotate(30)" fill="#000" stroke="#fff"/>
    </mask>

    <g id="bladepartial">
      <use xlink:href="#blade2" transform="rotate( 0)" mask="url(#blademask)"/>
      <use xlink:href="#blade2" transform="rotate(30)" mask="url(#blademask)" fill="none"/>
    </g>

    <g id="crosshairs">
      <rect x="-200" y="-200" width="400" height="400" fill="#ddd" />
      <line x1="-200" x2="200" y1="0" y2="0" stroke="#aaa" stroke-width="0.5" />
      <line x1="0" x2="0" y1="-200" y2="200" stroke="#aaa" stroke-width="0.5" />
    </g>
  </defs>


  <g transform="translate(250,250)">
    <use xlink:href="#crosshairs" />
    <use xlink:href="#blade2"/>
  </g>

  <g transform="translate(750,250)">
    <use xlink:href="#crosshairs" />
    <use xlink:href="#blade2" fill="#000" transform="rotate(  0)" />
    <use xlink:href="#blade2" fill="#ccc" transform="rotate( 30)" />
  </g>

  <g transform="translate(250, 750)">
    <use xlink:href="#crosshairs" />
    <use xlink:href="#bladepartial" fill="#f00" transform="rotate(  0)" />
  </g>

  <g transform="translate(750, 750)">
    <use xlink:href="#crosshairs" />
    <use xlink:href="#bladepartial" fill="#817" transform="rotate(  0)" />
    <use xlink:href="#bladepartial" fill="#a35" transform="rotate( 30)" />
    <use xlink:href="#bladepartial" fill="#c66" transform="rotate( 60)" />
    <use xlink:href="#bladepartial" fill="#e94" transform="rotate( 90)" />
    <use xlink:href="#bladepartial" fill="#ed0" transform="rotate(120)" />
    <use xlink:href="#bladepartial" fill="#9d5" transform="rotate(150)" />
    <use xlink:href="#bladepartial" fill="#4d8" transform="rotate(180)" />
    <use xlink:href="#bladepartial" fill="#2cb" transform="rotate(210)" />
    <use xlink:href="#bladepartial" fill="#0bc" transform="rotate(240)" />
    <use xlink:href="#bladepartial" fill="#09c" transform="rotate(270)" />
    <use xlink:href="#bladepartial" fill="#36b" transform="rotate(300)" />
    <use xlink:href="#bladepartial" fill="#639" transform="rotate(330)" />
  </g>
</svg>